<svg width="28" height="28" viewBox="0 0 28 28" fill="none" xmlns="http://www.w3.org/2000/svg">
<path fill-rule="evenodd" clip-rule="evenodd" d="M13.6222 27.4938C21.078 27.4938 27.1222 21.4497 27.1222 13.9938C27.1222 6.538 21.078 0.493835 13.6222 0.493835C6.16633 0.493835 0.122192 6.538 0.122192 13.9938C0.122192 21.4497 6.16633 27.4938 13.6222 27.4938ZM17.8337 6.78271C18.0387 6.05452 17.3321 5.62393 16.6867 6.08372L7.67754 12.5018C6.97764 13.0004 7.08773 13.9938 7.84292 13.9938H10.2153V13.9755H14.8389L11.0715 15.3047L9.41067 21.205C9.20568 21.9332 9.91226 22.3638 10.5577 21.904L19.5669 15.4859C20.2668 14.9873 20.1566 13.9938 19.4015 13.9938H15.8039L17.8337 6.78271Z" fill="#105D5C"/>
</svg>
